<?xml version="1.0" encoding="UTF-8" standalone="no"?>
<!DOCTYPE svg PUBLIC "-//W3C//DTD SVG 1.1//EN"
 "http://www.w3.org/Graphics/SVG/1.1/DTD/svg11.dtd">
<!-- Generated by graphviz version 8.0.5 (0)
 -->
<!-- Title: halfadder Pages: 1 -->
<svg width="358pt" height="134pt"
 viewBox="0.00 0.00 357.75 134.11" xmlns="http://www.w3.org/2000/svg" xmlns:xlink="http://www.w3.org/1999/xlink">
<g id="graph0" class="graph" transform="scale(1 1) rotate(0) translate(4 130.11)">
<title>halfadder</title>
<polygon fill="white" stroke="none" points="-4,4 -4,-130.11 353.75,-130.11 353.75,4 -4,4"/>
<!-- input -->
<g id="node1" class="node">
<title>input</title>
<path fill="none" stroke="black" d="M12,-35.61C12,-35.61 67.25,-35.61 67.25,-35.61 73.25,-35.61 79.25,-41.61 79.25,-47.61 79.25,-47.61 79.25,-74.11 79.25,-74.11 79.25,-80.11 73.25,-86.11 67.25,-86.11 67.25,-86.11 12,-86.11 12,-86.11 6,-86.11 0,-80.11 0,-74.11 0,-74.11 0,-47.61 0,-47.61 0,-41.61 6,-35.61 12,-35.61"/>
<text text-anchor="middle" x="27.12" y="-56.18" font-family="Times,serif" font-size="14.00">Input</text>
<polyline fill="none" stroke="black" points="54.25,-35.61 54.25,-86.11"/>
<text text-anchor="middle" x="66.75" y="-68.81" font-family="Times,serif" font-size="14.00">1</text>
<polyline fill="none" stroke="black" points="54.25,-60.86 79.25,-60.86"/>
<text text-anchor="middle" x="66.75" y="-43.56" font-family="Times,serif" font-size="14.00">1</text>
</g>
<!-- xor -->
<g id="node3" class="node">
<title>xor</title>
<path fill="none" stroke="black" d="M137.75,-0.61C137.75,-0.61 203,-0.61 203,-0.61 209,-0.61 215,-6.61 215,-12.61 215,-12.61 215,-39.11 215,-39.11 215,-45.11 209,-51.11 203,-51.11 203,-51.11 137.75,-51.11 137.75,-51.11 131.75,-51.11 125.75,-45.11 125.75,-39.11 125.75,-39.11 125.75,-12.61 125.75,-12.61 125.75,-6.61 131.75,-0.61 137.75,-0.61"/>
<text text-anchor="middle" x="138.25" y="-33.81" font-family="Times,serif" font-size="14.00">1</text>
<polyline fill="none" stroke="black" points="125.75,-25.86 150.75,-25.86"/>
<text text-anchor="middle" x="138.25" y="-8.56" font-family="Times,serif" font-size="14.00">1</text>
<polyline fill="none" stroke="black" points="150.75,-0.61 150.75,-51.11"/>
<text text-anchor="middle" x="170.38" y="-21.18" font-family="Times,serif" font-size="14.00">xor</text>
<polyline fill="none" stroke="black" points="190,-0.61 190,-51.11"/>
<text text-anchor="middle" x="202.5" y="-21.31" font-family="Times,serif" font-size="14.00">0</text>
</g>
<!-- input&#45;&gt;xor -->
<g id="edge1" class="edge">
<title>input:in1&#45;&gt;xor:xi1</title>
<path fill="none" stroke="black" d="M79.25,-73.86C84.45,-73.86 114.5,-65.6 129.65,-58.48"/>
<polygon fill="black" stroke="black" points="131.52,-60.69 137.38,-51.86 127.29,-55.11 131.52,-60.69"/>
<text text-anchor="middle" x="101.75" y="-72.81" font-family="Times,serif" font-size="14.00">1</text>
</g>
<!-- input&#45;&gt;xor -->
<g id="edge2" class="edge">
<title>input:in2&#45;&gt;xor:xi2</title>
<path fill="none" stroke="black" d="M66.62,-34.86C66.62,-14.77 78.85,-9.67 97.25,-1.61 100.91,0 102.4,-0.51 106.25,-1.61 110.52,-2.82 112.69,-5.37 114.76,-7.74"/>
<polygon fill="black" stroke="black" points="112.9,-11.24 123.38,-12.86 116.19,-5.07 112.9,-11.24"/>
<text text-anchor="middle" x="101.75" y="-5.81" font-family="Times,serif" font-size="14.00">1</text>
</g>
<!-- and -->
<g id="node4" class="node">
<title>and</title>
<path fill="none" stroke="black" d="M136.25,-70.61C136.25,-70.61 204.5,-70.61 204.5,-70.61 210.5,-70.61 216.5,-76.61 216.5,-82.61 216.5,-82.61 216.5,-109.11 216.5,-109.11 216.5,-115.11 210.5,-121.11 204.5,-121.11 204.5,-121.11 136.25,-121.11 136.25,-121.11 130.25,-121.11 124.25,-115.11 124.25,-109.11 124.25,-109.11 124.25,-82.61 124.25,-82.61 124.25,-76.61 130.25,-70.61 136.25,-70.61"/>
<text text-anchor="middle" x="136.75" y="-103.81" font-family="Times,serif" font-size="14.00">1</text>
<polyline fill="none" stroke="black" points="124.25,-95.86 149.25,-95.86"/>
<text text-anchor="middle" x="136.75" y="-78.56" font-family="Times,serif" font-size="14.00">1</text>
<polyline fill="none" stroke="black" points="149.25,-70.61 149.25,-121.11"/>
<text text-anchor="middle" x="170.38" y="-91.18" font-family="Times,serif" font-size="14.00">and</text>
<polyline fill="none" stroke="black" points="191.5,-70.61 191.5,-121.11"/>
<text text-anchor="middle" x="204" y="-91.31" font-family="Times,serif" font-size="14.00">1</text>
</g>
<!-- input&#45;&gt;and -->
<g id="edge3" class="edge">
<title>input:in1&#45;&gt;and:ai1</title>
<path fill="none" stroke="black" d="M66.62,-86.86C66.62,-110.63 89.34,-109.72 113.26,-109.05"/>
<polygon fill="black" stroke="black" points="113.31,-112.53 123.25,-108.86 113.19,-105.54 113.31,-112.53"/>
<text text-anchor="middle" x="101.75" y="-112.81" font-family="Times,serif" font-size="14.00">1</text>
</g>
<!-- input&#45;&gt;and -->
<g id="edge4" class="edge">
<title>input:in2&#45;&gt;and:ai2</title>
<path fill="none" stroke="black" d="M79.25,-47.86C91.29,-47.86 94.94,-41.46 106.25,-45.61 116.09,-49.22 116.04,-54.34 124.25,-60.86 125.48,-61.83 126.8,-62.48 128.1,-62.98"/>
<polygon fill="black" stroke="black" points="125.45,-66.16 135.38,-69.86 129.92,-60.77 125.45,-66.16"/>
<text text-anchor="middle" x="101.75" y="-48.81" font-family="Times,serif" font-size="14.00">1</text>
</g>
<!-- output -->
<g id="node2" class="node">
<title>output</title>
<path fill="none" stroke="black" d="M273.5,-38.61C273.5,-38.61 337.75,-38.61 337.75,-38.61 343.75,-38.61 349.75,-44.61 349.75,-50.61 349.75,-50.61 349.75,-77.11 349.75,-77.11 349.75,-83.11 343.75,-89.11 337.75,-89.11 337.75,-89.11 273.5,-89.11 273.5,-89.11 267.5,-89.11 261.5,-83.11 261.5,-77.11 261.5,-77.11 261.5,-50.61 261.5,-50.61 261.5,-44.61 267.5,-38.61 273.5,-38.61"/>
<text text-anchor="middle" x="274" y="-71.81" font-family="Times,serif" font-size="14.00">1</text>
<polyline fill="none" stroke="black" points="261.5,-63.86 286.5,-63.86"/>
<text text-anchor="middle" x="274" y="-46.56" font-family="Times,serif" font-size="14.00">0</text>
<polyline fill="none" stroke="black" points="286.5,-38.61 286.5,-89.11"/>
<text text-anchor="middle" x="318.12" y="-59.18" font-family="Times,serif" font-size="14.00">output</text>
</g>
<!-- xor&#45;&gt;output -->
<g id="edge5" class="edge">
<title>xor:xo&#45;&gt;output:out1</title>
<path fill="none" stroke="black" d="M216.38,-25.86C235,-25.86 238.01,-42.36 250.79,-48.55"/>
<polygon fill="black" stroke="black" points="249.99,-52.17 260.5,-50.86 251.46,-45.33 249.99,-52.17"/>
<text text-anchor="middle" x="239" y="-45.81" font-family="Times,serif" font-size="14.00">0</text>
</g>
<!-- and&#45;&gt;output -->
<g id="edge6" class="edge">
<title>and:ao&#45;&gt;output:out2</title>
<path fill="none" stroke="black" d="M216.5,-95.86C233.97,-95.86 238.41,-83.55 250.78,-78.75"/>
<polygon fill="black" stroke="black" points="251.26,-82.04 260.5,-76.86 250.04,-75.15 251.26,-82.04"/>
<text text-anchor="middle" x="239" y="-92.81" font-family="Times,serif" font-size="14.00">1</text>
</g>
</g>
</svg>
